<?xml version="1.0" encoding="UTF-8"?>
<svg id="Layer_1" data-name="Layer 1" xmlns="http://www.w3.org/2000/svg" viewBox="0 0 39.28 36.54">
  <defs>
    <style>
      .cls-1 {
        fill: #916d51;
      }

      .cls-2 {
        fill: #bc8a68;
      }

      .cls-3 {
        fill: #d1a078;
      }

      .cls-4, .cls-5 {
        fill: #705137;
      }

      .cls-5, .cls-6, .cls-7, .cls-8 {
        stroke-miterlimit: 10;
      }

      .cls-5, .cls-7 {
        stroke-width: .25px;
      }

      .cls-5, .cls-7, .cls-8 {
        stroke: #000;
      }

      .cls-6 {
        stroke: #090404;
        stroke-width: .15px;
      }

      .cls-6, .cls-7, .cls-8 {
        fill: none;
      }

      .cls-8 {
        stroke-width: .5px;
      }
    </style>
  </defs>
  <path class="cls-3" d="m6.54,30.46C1.89,25.35,1.04,17.85,3.95,11.59,6.5,6.12,11.6-.3,21.5.29c17,1,17.5,14.5,17.5,14.5,0,0,1.5,21.5-17.5,21.5-7.39,0-12.04-2.62-14.96-5.83Z"/>
  <path class="cls-4" d="m4.15,17.96c.12-.42.46-.74.87-.87.72-.23,2.1-.49,3.48.2,2,1-2,4-2,4,0,0-1,1-2-1-.53-1.05-.5-1.83-.35-2.33Z"/>
  <path class="cls-4" d="m22.08,8.16c-.85-1.14-.06-2.84,1.36-2.87.02,0,.04,0,.06,0,1.15,0,1.97,1,2.46,1.84s.24,1.89-.55,2.39-1.92.55-3.33-1.35Z"/>
  <path class="cls-4" d="m31.67,17.09c-.78-1.78.66-3.87,2.58-3.55.25.04.5.12.75.24,2,1,0,3,0,3,0,0-2,3-3,1-.12-.25-.23-.48-.33-.69Z"/>
  <path class="cls-4" d="m22.95,29.5c-.29-.7,0-1.51.64-1.9.96-.58,2.3-1.31,2.91-1.31,1,0,3,2,2,3s-3,4-4,3c-.58-.58-1.16-1.84-1.55-2.79Z"/>
  <path class="cls-4" d="m8.08,24.84c-.14-.76.09-1.57.69-2.06.35-.29.79-.43,1.23,0,1,1,3,2,2,3-.9.9-3.42,1.8-3.92-.95Z"/>
  <path class="cls-5" d="m27.5,13.29s0-2,1-1,0,2.57,0,2.57c0,0-1,1.43-1-1.57Z"/>
  <path class="cls-5" d="m14.14,7.25c-.23-.86.13-1.79.85-2.32.51-.38,1.02-.14,1.02-.14,2,1,1.57,2.74,0,3-.77.13-1.56.6-1.86-.54Z"/>
  <path class="cls-5" d="m34,19.79s1.5-1.5,1.5.5-1,2-1,2c0,0-2.5-.5-.5-2.5Z"/>
  <path class="cls-7" d="m16,29.79s0-1,1,0"/>
  <path class="cls-4" d="m23.5,19.29c-.81-.27-1.93-2.23-2.28-3-.3-.65-.3-1.36.9-1.57.51-.09.97-.08,1.37,0,1.58.3,2.67,1.76,2.77,3.37.06,1.05-.42,1.98-2.75,1.21Z"/>
  <path class="cls-7" d="m31.5,10.29s-1-1,0-1"/>
  <path class="cls-7" d="m19.85,21.81s2.14.43,1.9-1.05"/>
  <path class="cls-7" d="m8.5,13.29s1.55.44,1.28-1.28"/>
  <path class="cls-7" d="m19.5,3.71s-.39,1.93,1.31.76"/>
  <path class="cls-5" d="m16,12.01s2.5,2.46,3.5.87-3-2.01-3-2.01c0,0-2-.14-.5,1.14Z"/>
  <path class="cls-1" d="m22.11,14.71c.51-.09.97-.08,1.37,0,1.58.3,2.67,1.76,2.77,3.37-.75-2.79-5.34-3.15-4.14-3.36Z"/>
  <path class="cls-7" d="m23.5,19.29c-.81-.27-1.93-2.23-2.28-3-.3-.65-.3-1.36.9-1.57.51-.09.97-.08,1.37,0,1.58.3,2.67,1.76,2.77,3.37.06,1.05-.42,1.98-2.75,1.21Z"/>
  <path class="cls-4" d="m17.47,21.29c-.72.94-2.92.61-2.97-1.01-.04-1.6-1-4,1-4,1.41,0,2.67.66,3,3,.1.73-.71,1.58-1.03,2.01Z"/>
  <path class="cls-5" d="m24.5,23.29s.12-1.83,1.56-1.41.44,1.41.44,1.41c0,0-2,2-2,0Z"/>
  <path class="cls-1" d="m17.47,21.29c-.28.36,0-.62.03-1.01.18-1.79-.72-2.72-1.99-3.99h0c1.41,0,2.67.65,3,2.99.1.73-.71,1.58-1.03,2.01Z"/>
  <path class="cls-7" d="m17.47,21.29c-.72.94-2.92.61-2.97-1.01-.04-1.6-1-4,1-4,1.41,0,2.67.66,3,3,.1.73-.71,1.58-1.03,2.01Z"/>
  <path class="cls-1" d="m5.13,17.05c.63-.08,2.03-.52,3.37.23,1.61.91-1.56,3.65-1.56,3.65,0,0,2.91-2.39-.04-3.33"/>
  <path class="cls-7" d="m4.15,17.96c.12-.42.46-.74.87-.87.72-.23,2.1-.49,3.48.2,2,1-2,4-2,4,0,0-1,1-2-1-.53-1.05-.5-1.83-.35-2.33Z"/>
  <path class="cls-1" d="m21.73,7.09c.29-.98.29-1.77,1.71-1.8.02,0,.04,0,.06,0,1.15,0,1.97,1,2.46,1.84s.21.43-1.29-.63c-.47-.33-1.96-1.34-2.94.59Z"/>
  <path class="cls-7" d="m22.08,8.16c-.85-1.14-.06-2.84,1.36-2.87.02,0,.04,0,.06,0,1.15,0,1.97,1,2.46,1.84s.24,1.89-.55,2.39-1.92.55-3.33-1.35Z"/>
  <path class="cls-1" d="m25.73,27.33c-.83.01-2.79.66-2.14.27.96-.58,2.3-1.31,2.91-1.31,1,0,2.99,1.99,2,3-.11.12.46-.19-1.01-1.5-.61-.55-1.03-.47-1.76-.46Z"/>
  <path class="cls-7" d="m22.95,29.5c-.29-.7,0-1.51.64-1.9.96-.58,2.3-1.31,2.91-1.31,1,0,3,2,2,3s-3,4-4,3c-.58-.58-1.16-1.84-1.55-2.79Z"/>
  <path class="cls-1" d="m8.08,24.84c-.02-.31-.05-1.44.69-2.06.21-.17.37-.22.4-.23.56-.15,1.25.28,1.8,1.07-.18-.15-1.94-1.19-2.89,1.22Z"/>
  <path class="cls-7" d="m8.08,24.84c-.14-.76.09-1.57.69-2.06.35-.29.79-.43,1.23,0,1,1,3,2,2,3-.9.9-3.42,1.8-3.92-.95Z"/>
  <path class="cls-7" d="m31.67,17.09c-.78-1.78.66-3.87,2.58-3.55.25.04.5.12.75.24,2,1,0,3,0,3,0,0-2,3-3,1-.12-.25-.23-.48-.33-.69Z"/>
  <path class="cls-6" d="m30.07,21.11s.45.61-.08.85"/>
  <path class="cls-2" d="m9.33,29.4c2.73,2.13,6.12,5.78,13.88,5.31,7.27-.58,9.05.68-2.27,1.52-16.41-.99-18.04-12.02-18.04-12.02,0,0-1.39-2.72-.59-7.85.37,3.41,2.95,9.86,7.02,13.05Z"/>
  <path class="cls-8" d="m6.54,30.46C1.89,25.35,1.04,17.85,3.95,11.59,6.5,6.12,11.6-.3,21.5.29c17,1,17.5,14.5,17.5,14.5,0,0,1.5,21.5-17.5,21.5-7.39,0-12.04-2.62-14.96-5.83Z"/>
  <path class="cls-5" d="m5.5,27.29s0-1,1,0,0,1,0,1c0,0-1,0-1-1Z"/>
</svg>